<!-- <?xml version="1.0" encoding="UTF-8" standalone="no"?> -->
<!-- Created with Inkscape (http://www.inkscape.org/) -->

<svg
   version="1.1"
   id="svg855"
   width="322"
   height="276"
   viewBox="0 0 322 276"
   <!-- sodipodi:docname="3.1.svg"
   inkscape:version="1.1 (c68e22c387, 2021-05-23)"
   xmlns:inkscape="http://www.inkscape.org/namespaces/inkscape"
   xmlns:sodipodi="http://sodipodi.sourceforge.net/DTD/sodipodi-0.dtd" -->
   xmlns="http://www.w3.org/2000/svg"
   xmlns:xlink="http://www.w3.org/1999/xlink">
  <defs
     id="defs859" />
  <sodipodi:namedview
     id="namedview857"
     pagecolor="#ffffff"
     bordercolor="#666666"
     borderopacity="1.0"
     inkscape:pageshadow="2"
     inkscape:pageopacity="0.0"
     inkscape:pagecheckerboard="0"
     showgrid="false"
     inkscape:zoom="1.3196585"
     inkscape:cx="-107.22471"
     inkscape:cy="217.10162"
     inkscape:window-width="1600"
     inkscape:window-height="1125"
     inkscape:window-x="-9"
     inkscape:window-y="-9"
     inkscape:window-maximized="1"
     inkscape:current-layer="g861" />
  <g
     inkscape:groupmode="layer"
     inkscape:label="Image"
     id="g861">
    <g
       id="g865"
       transform="translate(-365.07307,61.478329)"
       inkscape:transform-center-x="41.784861"
       inkscape:transform-center-y="48.38247">
      <path
         style="fill:#b9b9b9;fill-opacity:1"
         d="M 60.061079,148.76093 C 92.246305,80.433676 95.97012,72.509519 103.17739,57.010928 c 1.98218,-4.2625 6.04536,-12.876256 9.02928,-19.14168 2.98393,-6.265424 7.27741,-15.377924 9.54108,-20.25 4.11575,-8.8583201 4.11575,-8.8583201 35.29172,-8.8583201 31.17597,0 31.17597,0 39.53734,17.7500001 4.59876,9.7625 11.25181,23.825 14.78456,31.25 3.53275,7.425 7.25968,15.4125 8.28208,17.75 1.18386,2.242604 0,0 8.42325,17.973684 3.2963,7.026978 8.0213,16.913338 10.5,21.969688 4.50673,9.19337 4.50673,9.19337 29.50673,-2.83278 13.75,-6.61439 28.375,-13.612807 32.5,-15.552045 4.125,-1.939238 8.7375,-4.163542 10.25,-4.942898 2.75,-1.417009 2.75,-1.417009 2.75,30.108673 0,20.38485 -0.35397,31.52568 -1.00164,31.52568 -1.71591,0 -44.22326,21.44249 -44.64003,22.51829 -0.21696,0.56007 8.82103,20.57704 20.08442,44.48217 24.07622,54.91903 38.57953,52.97181 -6.29016,52.99954 -30.84741,0 -30.84741,0 -40.12484,-19.75 -5.10259,-10.8625 -12.88107,-27.48804 -17.28551,-36.94564 -8.00806,-17.19564 -8.00806,-17.19564 -15.02146,-13.66375 -3.85736,1.94254 -11.11005,5.46685 -16.11708,7.83179 -11.7777,5.5629 -30.92158,14.77821 -68.1037,32.78311 -16.5,7.98989 -37.156531,17.95099 -45.903403,22.13578 -15.903403,7.60871 -15.903403,7.60871 -47,7.54532 C -0.08435062,267.50902 6.3651385,258.21509 60.061079,148.76093 Z m 60.118021,35.4431 c 16.51847,-7.89898 38.6458,-18.59137 62.56883,-30.23457 9.6745,-4.70853 9.6745,-4.70853 3.70184,-17.20853 -12.82642,-27.25022 -6.19918,-13.08494 -14.91065,-31.59161 -2.7969,-5.999619 -7.14682,-15.272864 -9.66651,-20.60722 -4.58124,-9.698827 -4.58124,-9.698827 -11.25166,4 -3.66873,7.534356 -12.27305,26.02993 -19.50709,40.9163 -13.15897,27.07881 -13.32875,27.74669 -13.60947,28.28649 -0.17657,0.33954 2.03527,-5.30465 0.90454,-2.06861 -0.42019,1.20255 3.71367,-8.12118 -7.72009,17.60663 -3.6934,8.31075 -7.59815,15.73941 -8.13653,16.69445 -1.0169,1.80388 -1.23332,2.76357 -0.62321,2.76357 0.19562,0 8.40812,-3.8506 18.25,-8.5569 z"
         id="path871"
         sodipodi:nodetypes="cssssssccsssssssccssssssccssccsssssssss" />
      <path
         style="opacity:1;fill:#a3a3a3;fill-opacity:1"
         d="m 256.21926,270.34426 c -167.391855,-178.274658 -83.69593,-89.13733 0,0 z M 69.141919,269.17912 c -0.04342,-0.34533 0.528887,-1.7289 1.411792,-3.85857 2.373798,-5.72587 21.701616,-38.10666 27.134082,-58.3809 3.835307,-14.31357 4.504777,-14.35939 19.123977,-21.70598 6.06795,-3.04933 10.87232,-4.65451 10.47147,-3.99122 -0.73255,1.21216 -22.88453,34.89718 -44.703749,67.97796 -6.534718,9.90748 -11.41219,18.27314 -11.021987,18.9045 0.40886,0.66156 0.255341,0.85776 -0.369155,0.4718 -0.588004,-0.36341 -0.830918,0.61618 -1.575561,0.59549 -0.470869,-0.0131 -0.427448,0.33226 -0.470869,-0.0131 z m 23.139844,-10.89736 c -58.10019,-170.232992 -29.050095,-85.1165 0,0 z M 297.94843,231.94843 c -195.2113,-152.677438 -97.60565,-76.33872 0,0 z M 173.68176,218.82434 c -112.366855,-143.928045 -56.18343,-71.96402 0,0 z M 110.6151,179.6151 c -70.322415,-117.788552 -35.161207,-58.89428 0,0 z m 158.05772,-11.93856 c -1.36888,-2.87546 -5.57475,-11.75311 -9.34637,-19.72811 -3.77161,-7.975 -8.23428,-17.28324 -9.91705,-20.68498 -1.68277,-3.40174 -2.71777,-5.97373 -2.30001,-5.71554 0.41776,0.25819 3.48472,-0.90622 6.81547,-2.58758 6.05592,-3.05702 6.05592,-3.05702 6.92587,-0.78446 0.47848,1.24991 5.67005,11.94756 11.53684,23.77256 5.86678,11.825 11.32628,22.00565 12.13223,22.62367 1.1942,0.91574 0.39797,1.63705 -4.30301,3.89814 -3.1726,1.52596 -6.50787,3.14796 -7.41172,3.60444 -1.31422,0.66374 -2.14184,-0.21712 -4.13225,-4.39814 z M 143.6151,109.6151 c -92.322415,-71.121885 -46.161207,-35.560943 0,0 z m 7.27573,-21.522827 c 0,0 -5.8218,-22.459749 -6.94322,-27.705189 -0.47756,-2.233739 -2.87255,-11.683739 -5.3222,-21 -2.44966,-9.316261 -4.82034,-18.277607 -5.18715,-19.927607 -1.83297,-8.245114 -2.95903,-9.8558609 -4.15943,-9.5788674 -0.85263,0.1967444 -0.98697,0.3678854 0.14029,-0.1467992 0.24806,-0.1132637 0.1919,0.00133 0.23952,5.147e-4 0.11979,-0.00205 0.19587,0.1504502 0.0789,0.034659 -0.13162,-0.1303021 -0.87098,1.1654709 2.57355,-0.3878425 1.19598,-0.5393281 63.21507,-38.4375306 0.0526,-0.03196 0,0 28.15284,60.3067604 29.86881,62.5773244 0.63261,0.837058 0.71503,1.141831 0.18316,0.677273 -0.58864,-0.514146 -3.29366,1.228653 -6.12244,7.221184 -2.85022,6.037934 -4.87236,7.272801 -5.40239,8.26731 z m 15.67563,-7.143845 c -107.623322,-52.01077 -53.81166,-26.005385 0,0 z M 196.6151,14.281761 c -127.739082,-7.6496591 -63.86954,-3.82483 0,0 z M 156.28176,6.2817612 c -100.850188,-2.3163259 -50.42509,-1.158163 0,0 z"
         id="path869"
         sodipodi:nodetypes="ccsssssssssssccccccccssssssssssscccssssssssssssccccccc" />
      <path
         style="fill:#8c8c8c;fill-opacity:1"
         d="m 76.07343,255.74755 c 0,-0.32759 3.073104,-7.02577 6.829121,-14.88486 3.756017,-7.85909 7.968761,-16.76426 9.361654,-19.78926 1.392893,-3.025 5.155677,-11.0515 8.361745,-17.83666 5.8292,-12.33666 0.90368,-10.44223 15.62017,-17.25 5.46831,-2.52961 10.13665,-4.90645 10.55914,-4.89803 0.42249,0.008 0.31811,0.34592 -0.23195,0.75 -1.04172,0.76524 -6.67104,9.16382 -30.319473,45.23469 -7.752593,11.825 -14.45922,21.95 -14.903615,22.5 -0.444395,0.55 -1.813471,2.29819 -3.042391,3.88486 -1.228921,1.58667 -2.234401,2.61684 -2.234401,2.28926 z m 195.0689,-85.0911 c -0.6772,-0.81598 -1.33858,-2.06847 -1.46973,-2.78331 -0.13115,-0.71484 -2.84594,-6.69971 -6.03285,-13.29971 -3.18692,-6.6 -7.12291,-14.8889 -8.74665,-18.41978 -1.62374,-3.53087 -3.82661,-8.13367 -4.89528,-10.22843 -1.94303,-3.80865 -1.94303,-3.80865 3.03305,-6.33022 2.73684,-1.38686 5.22187,-2.52157 5.52229,-2.52157 0.30042,0 6.06328,11.21593 12.80635,24.92428 12.26014,24.92429 12.26014,24.92429 7.25243,27.25 -2.75424,1.27915 -5.28461,2.45321 -5.62303,2.60902 -0.33842,0.15582 -1.16938,-0.38431 -1.84658,-1.20028 z M 149.1517,77.298599 c -1.79752,-6.998844 -3.61288,-14.300171 -4.03412,-16.225171 -0.71993,-3.28989 -9.44011,-37.157749 -10.68528,-41.5 -0.50439,-1.758924 -0.4028,-1.819193 0.84281,-0.5 0.77899,0.825 4.16766,7.35 7.5304,14.5 14.11173,30.005026 16.43738,35.049061 16.5985,36 0.0932,0.55 0.53564,1.269308 0.98324,1.598462 0.44761,0.329154 0.51207,3.53922 -2.12955,7.116117 -6.69455,9.064787 -4.95801,6.675263 -5.58382,7.624107 -0.93622,1.419469 -0.8331,1.856736 -3.52218,-8.613515 z"
         id="path867"
         sodipodi:nodetypes="ssssscsssssssssssssssssssscsssss" />
    </g>
  </g>
</svg>
